<svg width="800" height="940" viewBox="0 0 800 940" fill="none" xmlns="http://www.w3.org/2000/svg">
  <rect width="800" height="940" rx="36" fill="#FFF8F0"/>
  <rect x="38" y="38" width="724" height="864" rx="28" fill="url(#paint0_linear)"/>
  <circle cx="400" cy="320" r="126" fill="#FFF4F0"/>
  <path d="M270 634C270 545.635 341.635 474 430 474H370C458.365 474 530 545.635 530 634V696H270V634Z" fill="#F8E4EB"/>
  <circle cx="400" cy="291" r="78" fill="#D7AF9F"/>
  <path d="M319 290C319 240.294 359.294 200 409 200C458.706 200 499 240.294 499 290V315H319V290Z" fill="#5B4B4B"/>
  <path d="M352 363H448V437C448 463.51 426.51 485 400 485C373.49 485 352 463.51 352 437V363Z" fill="#D7AF9F"/>
  <text x="400" y="760" text-anchor="middle" fill="#333333" font-family="Poppins, Arial, sans-serif" font-size="42" font-weight="600">Bride Photo</text>
  <text x="400" y="806" text-anchor="middle" fill="#6D6770" font-family="Poppins, Arial, sans-serif" font-size="24">Replace with final portrait</text>
  <defs>
    <linearGradient id="paint0_linear" x1="92" y1="88" x2="700" y2="880" gradientUnits="userSpaceOnUse">
      <stop stop-color="#E6E6FA"/>
      <stop offset="1" stop-color="#F8C8DC"/>
    </linearGradient>
  </defs>
</svg>
