<svg width="800" height="940" viewBox="0 0 800 940" fill="none" xmlns="http://www.w3.org/2000/svg">
  <rect width="800" height="940" rx="36" fill="#FFF8F0"/>
  <rect x="38" y="38" width="724" height="864" rx="28" fill="url(#paint0_linear)"/>
  <circle cx="400" cy="320" r="126" fill="#FDF4F7"/>
  <path d="M290 618C290 539.023 354.023 475 433 475H367C445.977 475 510 539.023 510 618V676H290V618Z" fill="#E6E6FA"/>
  <circle cx="400" cy="289" r="74" fill="#CFA796"/>
  <path d="M327 288C327 244.608 362.608 209 406 209H412C455.392 209 491 244.608 491 288V302H327V288Z" fill="#6F5A58"/>
  <path d="M364 361H436V435C436 454.882 419.882 471 400 471C380.118 471 364 454.882 364 435V361Z" fill="#CFA796"/>
  <text x="400" y="760" text-anchor="middle" fill="#333333" font-family="Poppins, Arial, sans-serif" font-size="42" font-weight="600">Groom Photo</text>
  <text x="400" y="806" text-anchor="middle" fill="#6D6770" font-family="Poppins, Arial, sans-serif" font-size="24">Replace with final portrait</text>
  <defs>
    <linearGradient id="paint0_linear" x1="89" y1="86" x2="717" y2="881" gradientUnits="userSpaceOnUse">
      <stop stop-color="#F8C8DC"/>
      <stop offset="1" stop-color="#CFE8D5"/>
    </linearGradient>
  </defs>
</svg>
